<?xml version="1.0" encoding="UTF-8" standalone="no"?>
<?xml-stylesheet href="/css/app.css" type="text/css"?>
<!-- Created with Inkscape (http://www.inkscape.org/) -->

<svg
   xmlns:dc="http://purl.org/dc/elements/1.1/"
   xmlns:cc="http://creativecommons.org/ns#"
   xmlns:rdf="http://www.w3.org/1999/02/22-rdf-syntax-ns#"
   xmlns:svg="http://www.w3.org/2000/svg"
   xmlns="http://www.w3.org/2000/svg"
   xmlns:sodipodi="http://sodipodi.sourceforge.net/DTD/sodipodi-0.dtd"
   xmlns:inkscape="http://www.inkscape.org/namespaces/inkscape"
   id="donkey"
   version="1.1"
   inkscape:version="0.48.4 r9939"
   width="125.56392"
   height="238.83113"
   xml:space="preserve"
   sodipodi:docname="donkey.svg"><metadata
     id="metadata8"><rdf:RDF><cc:Work
         rdf:about=""><dc:format>image/svg+xml</dc:format><dc:type
           rdf:resource="http://purl.org/dc/dcmitype/StillImage" /><dc:title /></cc:Work></rdf:RDF></metadata><defs
     id="defs6"><clipPath
       clipPathUnits="userSpaceOnUse"
       id="clipPath20"><path
         d="m 4000,332.5 c -1535.35,0 -2780,460.082 -2780,1027.5 0,567.42 1244.65,1027.5 2780,1027.5 1535.36,0 2780,-460.08 2780,-1027.5 C 6780,792.582 5535.36,332.5 4000,332.5"
         id="path22"
         inkscape:connector-curvature="0" /></clipPath><radialGradient
       fx="0"
       fy="0"
       cx="0"
       cy="0"
       r="1"
       gradientUnits="userSpaceOnUse"
       gradientTransform="matrix(-196.782,0,0,21.4586,400,136)"
       spreadMethod="pad"
       id="radialGradient24"><stop
         style="stop-opacity:1;stop-color:#a6a9a8"
         offset="0"
         id="stop26" /><stop
         style="stop-opacity:1;stop-color:#bec0bd"
         offset="0.194687"
         id="stop28" /><stop
         style="stop-opacity:1;stop-color:#fefefd"
         offset="0.854672"
         id="stop30" /><stop
         style="stop-opacity:1;stop-color:#ffffff"
         offset="0.9609"
         id="stop32" /><stop
         style="stop-opacity:1;stop-color:#ffffff"
         offset="1"
         id="stop34" /></radialGradient></defs><sodipodi:namedview
     pagecolor="#ffffff"
     bordercolor="#666666"
     borderopacity="1"
     objecttolerance="10"
     gridtolerance="10"
     guidetolerance="10"
     inkscape:pageopacity="0"
     inkscape:pageshadow="2"
     inkscape:window-width="1615"
     inkscape:window-height="1026"
     id="namedview4"
     showgrid="false"
     inkscape:zoom="0.94"
     inkscape:cx="207.83895"
     inkscape:cy="53.624924"
     inkscape:window-x="65"
     inkscape:window-y="24"
     inkscape:window-maximized="1"
     inkscape:current-layer="g3023"
     fit-margin-top="-0.5"
     fit-margin-left="0"
     fit-margin-right="0"
     fit-margin-bottom="0" /><g
     id="g10"
     inkscape:groupmode="layer"
     inkscape:label="ink_ext_XXXXXX"
     transform="matrix(1.25,0,0,-1.25,-484.05289,699.13757)"><g
       id="g12"
       transform="scale(0.1,0.1)"><g
         id="g3023"
         transform="translate(128,0)"><g
           id="g3793"
           transform="matrix(0.39208734,0,0,0.39208734,2519.8769,2926.0131)"><path
             d="m 3544.96,5979.37 c -65.11,217.43 -161.95,490.41 -194.39,468.48 -32.44,-21.93 -7.81,-590.98 283.37,-1245.34 0,0 -23.88,559.43 -88.98,776.86"
             style="fill:#ffffff;fill-opacity:1;fill-rule:nonzero;stroke:none"
             id="path100"
             inkscape:connector-curvature="0" /><path
             sodipodi:nodetypes="ccccccccccccccscccccccccsscccsccccccccccccsccsccccccccccccccsccscsscccccsscsccccsscscccc"
             d="m 4800.45,5223.96 c 0,0 14.46,267.72 202.59,578.86 505.0875,698.336 257.0528,130.0361 28.95,-202.6 -127.83,-185.73 -202.61,-328.02 -231.54,-376.26 z M 4948.4,3763.77 c -48.13,-197.75 -391.99,-216.21 -479.05,-76.88 -87.07,139.34 -121.96,436.85 157.68,415.85 207.69,-15.59 369.5,-141.23 321.37,-338.97 z M 4174,2269.15 l 0,-0.28 c 0,0 -1.63,0.11 -5,0.14 -3.37,-0.03 -5,-0.14 -5,-0.14 l 0,0.28 c -430,6.08 -616.72,205.54 -606.82,521.98 10.04,321.4 412.59,482.09 608.45,482.09 195.83,0 602.04,-160.69 612.11,-482.09 9.89,-316.44 -173.74,-515.9 -603.74,-521.98 z m 195.13,-145.22 -3.99,47.29 c 52.55,3.25 103.12,13.71 150.8,30.37 -36.36,-29.63 -84.29,-57.82 -146.81,-77.66 z m -330.76,60.69 105.63,-6.26 0,-182.52 c -14,-4.38 -27.76,-6.58 -41.1,-6.58 l -0.01,0 c -37.07,0 -63.52,16.77 -76.2,26.99 z m 279.64,-168.85 c -12.18,-10.06 -37.57,-26.51 -73.35,-26.51 -13.12,0 -26.74,2.2 -40.66,6.57 l 0,182.6 99.81,6.14 z m -505.18,196.91 c 51.46,-21.27 106.74,-35.11 164.54,-40.29 l -3.39,-48.85 c -70.94,22.32 -123.21,55.37 -161.15,89.14 z m -419.38,1551.09 c -48.12,197.74 113.69,323.38 321.37,338.97 279.65,21 244.74,-276.51 157.68,-415.85 -87.06,-139.33 -430.92,-120.87 -479.05,76.88 z m -42.88,2684.08 c 32.44,21.93 129.28,-251.05 194.39,-468.48 65.1,-217.43 88.98,-776.86 88.98,-776.86 -291.18,654.36 -315.81,1223.41 -283.37,1245.34 z M 5269.3993,6241.0124 C 5076.4493,6347.1424 4851.09,6128.44 4687.07,5781.12 4564.8,5522.2 4560.5,5188.31 4566.22,5035.08 c -52.44,107.42 -62.45,181.65 -62.45,181.65 -86.82,-106.12 -86.82,-173.66 -86.82,-173.66 -38.58,86.83 -28.95,260.48 -28.95,260.48 -86.83,-96.47 -86.83,-202.6 -86.83,-202.6 -28.94,86.83 -7.24,289.44 -7.24,289.44 -106.11,-106.14 -151.95,-231.55 -151.95,-231.55 -19.29,135.06 28.95,361.78 28.95,361.78 -154.37,-154.36 -202.6,-405.2 -202.6,-405.2 -38.6,144.72 -21.71,188.13 -21.71,188.13 -60.1,-64.39 -98.19,-145.94 -122.01,-216.67 10.8,218.94 29.04,715.82 -15.47,916.12 -57.88,260.49 -231.55,863.47 -477.56,805.59 -246.02,-57.88 -246.02,-723.58 -144.72,-1056.42 101.31,-332.84 347.32,-882.76 347.32,-882.76 0,0 -323.19,-361.54 -323.19,-892.16 0,-288.7 105.41,-711.48 277.16,-1078.02 C 3472.5,2847.47 3464,2792.61 3464,2735.74 l 0,-1.48 c 0,-157.56 64.64,-299.96 168.76,-402.33 l 4.7,-15.02 c 3.22,-10.3 69.25,-210.23 330.35,-282.33 l -2.83,-40.8 8.32,-9.23 c 1.98,-2.25 49.49,-54.55 129.59,-54.55 l 0.01,0 c 23.22,0 46.9,4.24 70.54,12.97 23.98,-9.09 47.89,-13.71 71.22,-13.71 79.66,0 125.46,53.18 127.38,55.45 l 8,9.49 -3.45,41.04 c 237.59,66.67 312.39,239.29 325.61,275.34 117.54,103.4 191.8,254.83 191.8,423.68 l 0,1.48 c 0,50.67 -6.78,99.72 -19.3,146.43 176.49,370.4 285.11,801.91 285.11,1095.08 0,530.62 -323.19,892.29 -323.19,892.29 0,0 -7.42,7.68 -22.4,19.75 48.33,187.19 208.3,435.16 480.65,795.39 216.5959,239.9307 158.6688,462.6269 -2.6871,543.1707"
             style="fill:#312f2a;fill-opacity:1;fill-rule:nonzero;stroke:none"
             id="path102"
             inkscape:connector-curvature="0" /><path
             d="m 5003.04,5802.82 c -188.13,-311.14 -202.59,-578.86 -202.59,-578.86 28.93,48.24 103.71,190.53 231.54,376.26 205.72,298.91 156.3059,246.4647 221.4359,449.0647 -86.83,-123.01 -65.1759,59.8353 -250.3859,-246.4647"
             style="fill:#ffffff;fill-opacity:1;fill-rule:nonzero;stroke:none"
             id="path104"
             inkscape:connector-curvature="0"
             sodipodi:nodetypes="ccccc" /><path
             d="m 3592.94,3743.89 c -15.84,12.67 -28.04,30.23 -33.83,51.29 -14.64,53.12 16.58,108.04 69.71,122.67 53.13,14.63 108.05,-16.58 122.68,-69.72 6.66,-24.17 3.74,-48.69 -6.34,-69.64 -21.86,17.16 -49.51,26.1 -76.91,18.55 -32.08,-8.84 -59.71,-27.2 -75.31,-53.15 z m 279.56,-57 c 87.06,139.34 121.97,436.85 -157.68,415.85 -207.68,-15.59 -369.49,-141.23 -321.37,-338.97 48.13,-197.75 391.99,-216.21 479.05,-76.88"
             style="fill:#ffffff;fill-opacity:1;fill-rule:nonzero;stroke:none"
             id="path106"
             inkscape:connector-curvature="0" /><path
             d="m 3745.16,3778.49 c 10.08,20.95 13,45.47 6.34,69.64 -14.63,53.14 -69.55,84.35 -122.68,69.72 -53.13,-14.63 -84.35,-69.55 -69.71,-122.67 5.79,-21.06 17.99,-38.62 33.83,-51.29 15.6,25.95 43.23,44.31 75.31,53.15 27.4,7.55 55.05,-1.39 76.91,-18.55"
             style="fill:#312f2a;fill-opacity:1;fill-rule:nonzero;stroke:none"
             id="path108"
             inkscape:connector-curvature="0" /><path
             d="m 4713.03,3917.85 c 53.14,-14.63 84.36,-69.55 69.72,-122.67 -5.8,-21.06 -17.99,-38.62 -33.84,-51.29 -15.6,25.95 -43.22,44.31 -75.29,53.15 -27.4,7.55 -55.07,-1.39 -76.91,-18.55 -10.09,20.95 -13,45.47 -6.36,69.64 14.65,53.14 69.56,84.35 122.68,69.72 z m -243.68,-230.96 c 87.06,-139.33 430.92,-120.87 479.05,76.88 48.13,197.74 -113.68,323.38 -321.37,338.97 -279.64,21 -244.75,-276.51 -157.68,-415.85"
             style="fill:#ffffff;fill-opacity:1;fill-rule:nonzero;stroke:none"
             id="path110"
             inkscape:connector-curvature="0" /><path
             d="m 4590.35,3848.13 c -6.64,-24.17 -3.73,-48.69 6.36,-69.64 21.84,17.16 49.51,26.1 76.91,18.55 32.07,-8.84 59.69,-27.2 75.29,-53.15 15.85,12.67 28.04,30.23 33.84,51.29 14.64,53.12 -16.58,108.04 -69.72,122.67 -53.12,14.63 -108.03,-16.58 -122.68,-69.72"
             style="fill:#312f2a;fill-opacity:1;fill-rule:nonzero;stroke:none"
             id="path112"
             inkscape:connector-curvature="0" /><path
             d="m 4381.15,2499.33 c 0.02,0 -8.03,83.9 6.46,153.99 18.7,90.44 81.54,170.82 159.18,104.8 114.86,-97.62 -82.81,-279.5 -165.64,-258.79 z m -586.09,258.79 c 77.64,66.02 140.47,-14.36 159.17,-104.8 14.49,-70.09 6.46,-153.99 6.46,-153.99 -82.82,-20.71 -280.49,161.17 -165.63,258.79 z m 982.68,33.01 c -10.07,321.4 -416.28,482.09 -612.11,482.09 -195.86,0 -598.41,-160.69 -608.45,-482.09 -9.9,-316.44 176.82,-515.9 606.82,-521.98 l 0,-0.28 c 0,0 1.63,0.11 5,0.14 3.37,-0.03 5,-0.14 5,-0.14 l 0,0.28 c 430,6.08 613.63,205.54 603.74,521.98"
             style="fill:#ffffff;fill-opacity:1;fill-rule:nonzero;stroke:none"
             id="path114"
             inkscape:connector-curvature="0" /><path
             d="m 3960.69,2499.33 c 0,0 8.03,83.9 -6.46,153.99 -18.7,90.44 -81.53,170.82 -159.17,104.8 -114.86,-97.62 82.81,-279.5 165.63,-258.79"
             style="fill:#312f2a;fill-opacity:1;fill-rule:nonzero;stroke:none"
             id="path116"
             inkscape:connector-curvature="0" /><path
             d="m 4546.79,2758.12 c -77.64,66.02 -140.48,-14.36 -159.18,-104.8 -14.49,-70.09 -6.44,-153.99 -6.46,-153.99 82.83,-20.71 280.5,161.17 165.64,258.79"
             style="fill:#312f2a;fill-opacity:1;fill-rule:nonzero;stroke:none"
             id="path118"
             inkscape:connector-curvature="0" /><path
             d="m 4102.9,1989.26 c 13.34,0 27.1,2.2 41.1,6.58 l 0,182.52 -105.63,6.26 -11.68,-168.37 c 12.68,-10.22 39.13,-26.99 76.2,-26.99 l 0.01,0"
             style="fill:#ffffff;fill-opacity:1;fill-rule:nonzero;stroke:none"
             id="path120"
             inkscape:connector-curvature="0" /><path
             d="m 4303.81,2184.57 -99.81,-6.14 0,-182.6 c 13.92,-4.37 27.54,-6.57 40.66,-6.57 35.78,0 61.17,16.45 73.35,26.51 l -14.2,168.8"
             style="fill:#ffffff;fill-opacity:1;fill-rule:nonzero;stroke:none"
             id="path122"
             inkscape:connector-curvature="0" /><path
             inkscape:transform-center-x="-5.6277442"
             inkscape:transform-center-y="60.530887"
             sodipodi:nodetypes="sssss"
             inkscape:connector-curvature="0"
             id="ear"
             d="m 5628.2802,5254.0889 c -130.4422,-55.0469 -476.2797,279.873 -564.5369,489.0117 -88.257,209.1385 -54.0592,423.3032 76.3828,478.3503 130.4422,55.0468 275.818,-37.9542 395.9899,-279.0077 101.2775,-203.1531 222.6063,-633.3073 92.1642,-688.3543 z"
             style="fill:#312f2a;fill-opacity:1" /></g></g></g></g></svg>